<svg width="925.18" height="770.09" xmlns="http://www.w3.org/2000/svg" xmlns:xlink="http://www.w3.org/1999/xlink">
 <defs>
  <linearGradient y2="0.00005" x2="0.50002" y1="1" x1="0.50002" id="f2b43956-505e-42fa-8271-42f9f0912862">
   <stop stop-opacity="0.25" stop-color="gray" offset="0"/>
   <stop stop-opacity="0.12" stop-color="gray" offset="0.54"/>
   <stop stop-opacity="0.1" stop-color="gray" offset="1"/>
  </linearGradient>
  <linearGradient y2="1.00016" x2="0.49978" y1="0" x1="0.49978" id="93f39c8e-311a-4ffb-9b96-ec7d8ca6b5cd">
   <stop stop-color="#e0e0e0" offset="0"/>
   <stop stop-color="#fccc63" offset="0.31"/>
   <stop stop-color="#f55f44" offset="0.77"/>
  </linearGradient>
  <linearGradient xlink:href="#93f39c8e-311a-4ffb-9b96-ec7d8ca6b5cd" y2="679.83" x2="420.89" y1="617.2" x1="420.89" id="f0b6c0c1-af46-47f0-89cc-f1295e85d837"/>
  <linearGradient xlink:href="#93f39c8e-311a-4ffb-9b96-ec7d8ca6b5cd" y2="679.83" x2="467.86" y1="617.2" x1="467.86" id="835adc3d-9947-42f8-a8c1-90fc1375c35f"/>
  <linearGradient xlink:href="#93f39c8e-311a-4ffb-9b96-ec7d8ca6b5cd" y2="679.83" x2="543.67" y1="617.2" x1="543.67" id="05d2e404-cee9-4ec4-9322-f8806c9b5d69"/>
  <linearGradient xlink:href="#f2b43956-505e-42fa-8271-42f9f0912862" y2="647.79" x2="580.55" y1="835.05" x1="580.55" id="84020695-8aca-4fdc-a56d-10a85085e734"/>
  <linearGradient y2="1" x2="0.5" y1="0" x1="0.5" id="ee8b87cd-bc8a-4975-b833-23268ebbebf9">
   <stop stop-color="#f2f2f2" offset="0"/>
   <stop stop-color="#e6e6e6" offset="0.31"/>
   <stop stop-color="#ccc" offset="0.77"/>
  </linearGradient>
  <linearGradient xlink:href="#ee8b87cd-bc8a-4975-b833-23268ebbebf9" y2="766.41" x2="272.35" y1="606.91" x1="272.35" id="93e0219e-fb1a-4fd7-ab06-cb9d2e8d46b6"/>
  <linearGradient xlink:href="#ee8b87cd-bc8a-4975-b833-23268ebbebf9" y2="766.41" x2="596.45" y1="606.91" x1="596.45" id="eaf709e1-10fa-49af-93d3-e446f8f22d21"/>
  <linearGradient xlink:href="#ee8b87cd-bc8a-4975-b833-23268ebbebf9" y2="766.41" x2="592.44" y1="620.75" x1="592.44" id="b99db109-4c8d-4947-bfd9-8341738d16d4"/>
  <linearGradient xlink:href="#ee8b87cd-bc8a-4975-b833-23268ebbebf9" y2="831.37" x2="574.72" y1="699.54" x1="574.72" id="73d53186-09ce-4d56-8d1f-5ffca19f900f"/>
  <linearGradient xlink:href="#ee8b87cd-bc8a-4975-b833-23268ebbebf9" y2="831.37" x2="482.23" y1="737.41" x1="482.23" id="f1bd4c24-bb4d-4277-a1fb-6bc8d7a55dfd"/>
  <linearGradient xlink:href="#ee8b87cd-bc8a-4975-b833-23268ebbebf9" y2="831.37" x2="665.03" y1="751.98" x1="665.03" id="319244db-d860-4fad-863b-9a3a16f5944b"/>
  <linearGradient xlink:href="#ee8b87cd-bc8a-4975-b833-23268ebbebf9" y2="831.37" x2="802.69" y1="737.41" x1="802.69" id="3a40aa9d-8c97-4785-a2ce-02f5c84266af"/>
  <linearGradient xlink:href="#ee8b87cd-bc8a-4975-b833-23268ebbebf9" y2="831.37" x2="358.41" y1="737.41" x1="358.41" id="f3ea85b0-d529-430f-a5f3-7431de71f741"/>
  <linearGradient xlink:href="#f2b43956-505e-42fa-8271-42f9f0912862" y2="589.91" x2="710.43" y1="616.63" x1="710.43" id="421cecf6-ea42-4f8e-95af-7dadfc0b5864"/>
  <linearGradient xlink:href="#ee8b87cd-bc8a-4975-b833-23268ebbebf9" y2="615.65" x2="710.43" y1="590.89" x1="710.43" id="b76e450b-11c8-416c-a0eb-ba73061d2446"/>
  <linearGradient xlink:href="#f2b43956-505e-42fa-8271-42f9f0912862" y2="717.62" x2="771.61" y1="746.75" x1="771.61" id="72df51fc-e37e-4ea5-a672-fa692e8e4323"/>
  <linearGradient y2="1" x2="0.5" y1="0" x1="0.5" id="7c061988-e8ee-45a9-b1b1-05af47469914">
   <stop stop-color="#f2f2f2" offset="0"/>
   <stop stop-color="#e0e0e0" offset="0.31"/>
   <stop stop-color="#b3b3b3" offset="0.77"/>
  </linearGradient>
  <linearGradient xlink:href="#f2b43956-505e-42fa-8271-42f9f0912862" y2="633.14" x2="148.17" y1="665.16" x1="148.17" id="a0922416-7296-47ba-816d-5ff33eb958ea"/>
  <linearGradient xlink:href="#ee8b87cd-bc8a-4975-b833-23268ebbebf9" y2="664.45" x2="148.17" y1="633.86" x1="148.17" id="63e85972-a6d1-4957-b932-816027d688a4"/>
  <linearGradient xlink:href="#f2b43956-505e-42fa-8271-42f9f0912862" y2="64.95" x2="853.67" y1="152.79" x1="853.67" id="299d5e2e-be3b-4509-84b8-ec33c3786422"/>
  <linearGradient xlink:href="#ee8b87cd-bc8a-4975-b833-23268ebbebf9" y2="746.02" x2="771.61" y1="718.34" x1="771.61" id="f866518d-8775-4843-b285-e9e24a2ef8da"/>
  <linearGradient xlink:href="#f2b43956-505e-42fa-8271-42f9f0912862" y2="404.95" x2="389.67" y1="446.79" x1="389.67" id="20e3e192-3217-42d5-9266-898a1edf98f2"/>
 </defs>
 <title>To the stars</title>
 <g>
  <title>background</title>
  <rect fill="none" id="canvas_background" height="602" width="802" y="-1" x="-1"/>
 </g>
 <g>
  <title>Layer 1</title>
  <g id="svg_1" opacity="0.7">
   <path id="svg_2" fill="url(#f2b43956-505e-42fa-8271-42f9f0912862)" d="m584.59,346.63a150.57,150.57 0 0 0 -17,-70c-5.34,-10.15 -10.21,-16.46 -14,-20.33a10,10 0 0 0 -11.4,-2.25a10.28,10.28 0 0 0 -4,2.58c-5.07,5.25 -9.65,12.19 -13.65,19.58a151.15,151.15 0 0 0 -17.87,71.92l0,15.06l-9.66,0l0,-175c0,-36.68 -8.21,-72.87 -24.29,-105c-7.62,-15.21 -14.57,-24.66 -19.92,-30.47a13.81,13.81 0 0 0 -20.76,0c-7.24,7.87 -13.77,18.27 -19.48,29.33c-16.91,32.79 -25.5,70 -25.5,107.77l0,173.37l-8.35,0l0,-15.78a151.15,151.15 0 0 0 -17.87,-71.92c-4,-7.38 -8.58,-14.32 -13.65,-19.58a10,10 0 0 0 -11.6,-2.12l0.35,0.19a10.31,10.31 0 0 0 -3.26,2.28c-3.75,3.87 -8.62,10.18 -14,20.33a150.57,150.57 0 0 0 -17,70l0,261.64l29.8,0l-3.25,21.51l0,64.31l24.36,0l0,-64.31l-3.25,-21.51l29.37,0l0,-238.27l8.35,0l0,237.2l23.8,0l-3.42,22.57l0,64.32l24.37,0l0,-64.31l-3.42,-22.57l32.07,0l-3.42,22.57l0,64.31l24.37,0l0,-64.31l-3.42,-22.57l19,0l0,-237.21l9.66,0l0,238.63l7.83,0l0,-0.36l25.89,0l-3.25,21.51l0,64.31l24.37,0l0,-64.31l-3.25,-21.51l26.35,0l0,-261.6z"/>
  </g>
  <polygon id="svg_3" fill="#535461" points="357.44 617.2 334.37 617.2 338.49 589.19 353.32 589.19 357.44 617.2"/>
  <g id="svg_4" opacity="0.1">
   <polygon id="svg_5" points="337.34 600.31 354.47 600.31 353.32 592.48 338.49 592.48 337.34 600.31"/>
  </g>
  <polygon id="svg_6" fill="#535461" points="555.2 617.2 532.13 617.2 536.25 589.19 551.08 589.19 555.2 617.2"/>
  <g id="svg_7" opacity="0.1">
   <polygon id="svg_8" points="535.1 600.31 552.23 600.31 551.08 592.48 536.25 592.48 535.1 600.31"/>
  </g>
  <polygon id="svg_9" fill="#535461" points="432.43 617.2 409.35 617.2 413.47 589.19 428.31 589.19 432.43 617.2"/>
  <g id="svg_10" opacity="0.1">
   <polygon id="svg_11" points="412.32 600.31 429.46 600.31 428.31 592.48 413.47 592.48 412.32 600.31"/>
  </g>
  <polygon id="svg_12" fill="#535461" points="479.39 617.2 456.32 617.2 460.44 589.19 475.27 589.19 479.39 617.2"/>
  <g id="svg_13" opacity="0.1">
   <polygon id="svg_14" points="459.29 600.31 476.43 600.31 475.27 592.48 460.44 592.48 459.29 600.31"/>
  </g>
  <rect id="svg_15" fill="#535461" height="6.59" width="164.8" y="357.64" x="357.44"/>
  <path id="svg_16" fill="#112538" d="m547.72,253.51a9.29,9.29 0 0 0 -13.77,0c-4.8,5.11 -9.13,11.87 -12.92,19.06a150.58,150.58 0 0 0 -16.91,70l0,253.69l72.93,0l0,-254.74a150,150 0 0 0 -16.11,-68.21c-5.06,-9.88 -9.67,-16.03 -13.22,-19.8z"/>
  <path id="svg_17" fill="#112538" d="m338.59,253.51a9.29,9.29 0 0 1 13.77,0c4.8,5.11 9.13,11.87 12.92,19.06a150.58,150.58 0 0 1 16.91,70l0,253.69l-72.95,0l0,-254.74a150,150 0 0 1 16.11,-68.21c5.05,-9.88 9.66,-16.03 13.24,-19.8z"/>
  <polygon id="svg_18" fill="#535461" points="309.65 346.93 326.95 347.01 326.95 368.35 309.65 368.35 309.65 346.93"/>
  <polygon id="svg_19" fill="#535461" points="364.86 346.93 382.16 347.01 382.16 368.35 364.86 368.35 364.86 346.93"/>
  <polygon id="svg_20" fill="#535461" points="504.11 346.93 521.42 347.01 521.42 368.35 504.11 368.35 504.11 346.93"/>
  <polygon id="svg_21" fill="#535461" points="559.32 346.93 576.63 347.01 576.63 368.35 559.32 368.35 559.32 346.93"/>
  <g id="svg_22" opacity="0.1">
   <path id="svg_23" d="m365.25,272.24c-3.78,-7.19 -8.12,-13.95 -12.92,-19.06a9.26,9.26 0 0 0 -11,-2.07a9.83,9.83 0 0 1 2.78,2.07c4.8,5.11 9.13,11.87 12.92,19.06a150.58,150.58 0 0 1 16.91,70l0,253.67l8.24,0l0,-253.64a150.58,150.58 0 0 0 -16.93,-70.03z"/>
  </g>
  <g id="svg_24" opacity="0.1">
   <path id="svg_25" d="m527.59,272.94c3.78,-7.19 8.12,-13.95 12.92,-19.06a9.8,9.8 0 0 1 3.19,-2.28a9.27,9.27 0 0 0 -10.6,2.28c-4.8,5.11 -9.13,11.87 -12.92,19.06a150.58,150.58 0 0 0 -16.91,70l0,253.67l7.42,0l0,-253.63a150.58,150.58 0 0 1 16.9,-70.04z"/>
  </g>
  <rect id="svg_26" fill="url(#93f39c8e-311a-4ffb-9b96-ec7d8ca6b5cd)" height="62.62" width="23.07" y="617.2" x="334.37"/>
  <rect id="svg_27" fill="url(#f0b6c0c1-af46-47f0-89cc-f1295e85d837)" height="62.62" width="23.07" y="617.2" x="409.35"/>
  <rect id="svg_28" fill="url(#835adc3d-9947-42f8-a8c1-90fc1375c35f)" height="62.62" width="23.07" y="617.2" x="456.32"/>
  <rect id="svg_29" fill="url(#05d2e404-cee9-4ec4-9322-f8806c9b5d69)" height="62.62" width="23.07" y="617.2" x="532.13"/>
  <path id="svg_30" fill="#182f47" d="m452.29,54.61a12.84,12.84 0 0 0 -19.65,0c-6.85,7.66 -13,17.79 -18.44,28.57c-16,31.94 -24.14,68.19 -24.14,104.95l0,407.09l104.09,0l0,-408.73c0,-35.72 -7.77,-71 -23,-102.21c-7.21,-14.81 -13.79,-24.01 -18.86,-29.67z"/>
  <rect id="svg_31" fill="#6c63ff" ry="11" rx="11" height="24.89" width="54.31" y="99.83" x="414.23"/>
  <g id="svg_32" opacity="0.7">
   <path id="svg_33" fill="url(#84020695-8aca-4fdc-a56d-10a85085e734)" d="m684.59,672.98l0,0a83,83 0 0 0 -164.88,14.07c0,0.41 0,0.81 0,1.22l0,0a76.61,76.61 0 0 0 -9.1,1.95a75.84,75.84 0 0 0 -142.6,-12.91a75,75 0 0 0 -20.92,-4.78l0,0a82.38,82.38 0 0 0 -5.71,-18.85a75.8,75.8 0 0 0 -151.12,-2a82.45,82.45 0 0 0 -7.42,26.37l0,0a75.88,75.88 0 0 0 -43.49,92l607.58,0a75.86,75.86 0 0 0 -62.34,-97.07z"/>
  </g>
  <circle id="svg_34" fill="url(#ee8b87cd-bc8a-4975-b833-23268ebbebf9)" r="72.83" cy="659.35" cx="272.71"/>
  <circle id="svg_35" fill="url(#93e0219e-fb1a-4fd7-ab06-cb9d2e8d46b6)" r="79.75" cy="686.66" cx="272.35"/>
  <circle id="svg_36" fill="url(#eaf709e1-10fa-49af-93d3-e446f8f22d21)" r="79.75" cy="686.66" cx="596.45"/>
  <circle id="svg_37" fill="url(#b99db109-4c8d-4947-bfd9-8341738d16d4)" r="72.83" cy="693.58" cx="592.44"/>
  <path id="svg_38" fill="url(#73d53186-09ce-4d56-8d1f-5ffca19f900f)" d="m510.14,707.42a72.7,72.7 0 0 1 -30.12,59l-85.43,0a72.86,72.86 0 1 1 115.54,-59l0.01,0z"/>
  <path id="svg_39" fill="url(#f1bd4c24-bb4d-4277-a1fb-6bc8d7a55dfd)" d="m417.65,745.29a72.5,72.5 0 0 1 -3.12,21.12l-139.43,0a0,0 0 0 1 0,-0.05a72.83,72.83 0 0 1 69.28,-93.9l0.45,0q3.06,0 6.07,0.25a72.07,72.07 0 0 1 20.09,4.59a72.85,72.85 0 0 1 46.66,67.99z"/>
  <path id="svg_40" fill="url(#319244db-d860-4fad-863b-9a3a16f5944b)" d="m600.46,759.86q0,3.27 -0.29,6.47a0.18,0.18 0 0 1 0,0.09l-145.08,0c-0.2,-2.16 -0.3,-4.35 -0.3,-6.55a72.76,72.76 0 0 1 61.92,-72a73.77,73.77 0 0 1 10.88,-0.82c1.86,0 3.71,0.07 5.54,0.2a72.89,72.89 0 0 1 60.9,42.74c0.3,0.66 0.59,1.33 0.86,2a72.48,72.48 0 0 1 5.57,27.87z"/>
  <path id="svg_41" fill="url(#3a40aa9d-8c97-4785-a2ce-02f5c84266af)" d="m738.11,745.29a72.5,72.5 0 0 1 -3.12,21.12l-139.4,0s0,0 0,0a73.29,73.29 0 0 1 -1.87,-34.54c0.12,-0.63 0.24,-1.27 0.38,-1.89a72.86,72.86 0 0 1 71.22,-57.51c2.29,0 4.54,0.1 6.77,0.32c1,0.08 2,0.2 3,0.33a72.84,72.84 0 0 1 63.02,72.17z"/>
  <path id="svg_42" fill="url(#f3ea85b0-d529-430f-a5f3-7431de71f741)" d="m290.72,766.42c0.24,-0.76 0.45,-1.52 0.66,-2.29a72.88,72.88 0 0 0 -89.79,-89.08a69.46,69.46 0 0 0 -8.51,2.94a72.9,72.9 0 0 0 -41.78,88.4l139.42,0l0,0.03z"/>
  <g id="svg_43" opacity="0.7">
   <circle id="svg_44" fill="url(#421cecf6-ea42-4f8e-95af-7dadfc0b5864)" r="13.36" cy="603.27" cx="710.43"/>
  </g>
  <circle id="svg_45" fill="url(#b76e450b-11c8-416c-a0eb-ba73061d2446)" r="12.38" cy="603.27" cx="710.43"/>
  <g id="svg_46" opacity="0.7">
   <circle id="svg_47" fill="url(#72df51fc-e37e-4ea5-a672-fa692e8e4323)" r="14.57" cy="732.18" cx="771.61"/>
  </g>
  <circle id="svg_48" fill="url(#7c061988-e8ee-45a9-b1b1-05af47469914)" r="13.84" cy="732.18" cx="771.61"/>
  <g id="svg_49" opacity="0.7">
   <circle id="svg_50" fill="url(#a0922416-7296-47ba-816d-5ff33eb958ea)" r="16.01" cy="649.15" cx="148.17"/>
  </g>
  <circle id="svg_51" fill="url(#63e85972-a6d1-4957-b932-816027d688a4)" r="15.29" cy="649.15" cx="148.17"/>
  <g id="svg_52" opacity="0.4">
   <path id="svg_53" fill="url(#299d5e2e-be3b-4509-84b8-ec33c3786422)" d="m751.32,17.47l0,0a44.33,44.33 0 0 0 -13.08,-11.58l0,0a43.92,43.92 0 1 0 -22,82c0.93,0 1.86,0 2.78,-0.09a43.91,43.91 0 0 0 32.28,-70.28l0.02,-0.05z"/>
  </g>
  <path id="svg_54" opacity="0.2" fill="#6c63ff" d="m757.77,43.92a41.51,41.51 0 0 1 -38.88,41.43c-0.87,0.06 -1.75,0.09 -2.63,0.09a41.51,41.51 0 1 1 20.76,-77.47l0,0a41.9,41.9 0 0 1 12.37,10.95l0,0a41.3,41.3 0 0 1 8.38,25z"/>
  <path id="svg_55" opacity="0.05" fill="#f55f44" d="m706.04,17.59a45.19,45.19 0 0 0 -6.19,3.26a9.8,9.8 0 0 0 -3.31,3a3.9,3.9 0 0 0 -0.08,4.23c1,1.38 3,1.6 4.67,1.69a8.86,8.86 0 0 0 8.48,-2.8l3.57,-3.24c1.24,-1.12 2.6,-2.67 2.06,-4.25c-0.41,-1.21 -1.77,-1.8 -3,-2a12.59,12.59 0 0 0 -8.93,1.57"/>
  <circle id="svg_56" opacity="0.05" fill="#f55f44" r="2.18" cy="60.31" cx="691.13"/>
  <circle id="svg_57" opacity="0.05" fill="#f55f44" r="8.01" cy="46.47" cx="735.56"/>
  <path id="svg_58" opacity="0.05" fill="#f55f44" d="m749.4,18.91l0,0a10.93,10.93 0 1 1 -12.37,-11l0,0a41.9,41.9 0 0 1 12.37,11z"/>
  <path id="svg_59" opacity="0.05" fill="#f55f44" d="m750.2,67.83a41.41,41.41 0 0 1 -31.31,17.52c-0.05,-0.57 -0.08,-1.15 -0.08,-1.73a19.67,19.67 0 0 1 31.39,-15.79z"/>
  <circle id="svg_60" opacity="0.25" fill="#535461" r="5.1" cy="344.72" cx="722.81"/>
  <circle id="svg_61" opacity="0.25" fill="#535461" r="5.1" cy="478.72" cx="42.81"/>
  <circle id="svg_62" opacity="0.25" fill="#535461" r="5.1" cy="507.72" cx="919.81"/>
  <circle id="svg_63" opacity="0.25" fill="#535461" r="5.1" cy="266.06" cx="288.73"/>
  <circle id="svg_64" opacity="0.25" fill="#535461" r="5.1" cy="148.8" cx="271.98"/>
  <circle id="svg_65" opacity="0.25" fill="#535461" r="5.1" cy="381.13" cx="127.77"/>
  <polygon id="svg_66" opacity="0.25" fill="#535461" points="849.18 387.12 844.64 387.12 844.64 382.59 842.79 382.59 842.79 387.12 838.25 387.12 838.25 388.98 842.79 388.98 842.79 393.51 844.64 393.51 844.64 388.98 849.18 388.98 849.18 387.12"/>
  <polygon id="svg_67" opacity="0.25" fill="#535461" points="925.18 230.12 920.64 230.12 920.64 225.59 918.79 225.59 918.79 230.12 914.25 230.12 914.25 231.98 918.79 231.98 918.79 236.51 920.64 236.51 920.64 231.98 925.18 231.98 925.18 230.12"/>
  <polygon id="svg_68" opacity="0.25" fill="#535461" points="601.55 142.41 597.01 142.41 597.01 137.87 595.16 137.87 595.16 142.41 590.62 142.41 590.62 144.26 595.16 144.26 595.16 148.8 597.01 148.8 597.01 144.26 601.55 144.26 601.55 142.41"/>
  <polygon id="svg_69" opacity="0.25" fill="#535461" points="799.65 361.63 795.11 361.63 795.11 357.1 793.26 357.1 793.26 361.63 788.73 361.63 788.73 363.49 793.26 363.49 793.26 368.02 795.11 368.02 795.11 363.49 799.65 363.49 799.65 361.63"/>
  <polygon id="svg_70" opacity="0.25" fill="#535461" points="633.59 512.39 629.06 512.39 629.06 507.86 627.21 507.86 627.21 512.39 622.67 512.39 622.67 514.25 627.21 514.25 627.21 518.78 629.06 518.78 629.06 514.25 633.59 514.25 633.59 512.39"/>
  <polygon id="svg_71" opacity="0.25" fill="#535461" points="168.93 201.4 164.39 201.4 164.39 196.87 162.54 196.87 162.54 201.4 158 201.4 158 203.25 162.54 203.25 162.54 207.79 164.39 207.79 164.39 203.25 168.93 203.25 168.93 201.4"/>
  <polygon id="svg_72" opacity="0.25" fill="#535461" points="10.93 260.4 6.39 260.4 6.39 255.87 4.54 255.87 4.54 260.4 0 260.4 0 262.25 4.54 262.25 4.54 266.79 6.39 266.79 6.39 262.25 10.93 262.25 10.93 260.4"/>
  <polygon id="svg_73" opacity="0.25" fill="#535461" points="231.56 446.12 227.02 446.12 227.02 441.58 225.17 441.58 225.17 446.12 220.64 446.12 220.64 447.97 225.17 447.97 225.17 452.51 227.02 452.51 227.02 447.97 231.56 447.97 231.56 446.12"/>
  <circle id="svg_74" fill="url(#f866518d-8775-4843-b285-e9e24a2ef8da)" r="13.84" cy="732.18" cx="771.61"/>
  <g id="svg_75" opacity="0.4">
   <path id="svg_76" fill="url(#20e3e192-3217-42d5-9266-898a1edf98f2)" d="m268.96,348.32l0,0a21.11,21.11 0 0 0 -6.23,-5.52l0,0a20.92,20.92 0 1 0 -10.46,39c0.44,0 0.89,0 1.32,0a20.92,20.92 0 0 0 15.37,-33.47l0,-0.01z"/>
  </g>
  <path id="svg_77" opacity="0.2" fill="#6c63ff" d="m272.03,360.92a19.77,19.77 0 0 1 -18.52,19.73c-0.41,0 -0.83,0 -1.25,0a19.77,19.77 0 1 1 9.89,-36.9l0,0a20,20 0 0 1 5.89,5.21l0,0a19.67,19.67 0 0 1 3.99,11.96z"/>
  <path id="svg_78" opacity="0.1" fill="#f55f44" d="m247.39,348.38a21.52,21.52 0 0 0 -3,1.55a4.67,4.67 0 0 0 -1.58,1.41a1.86,1.86 0 0 0 0,2a2.83,2.83 0 0 0 2.22,0.8a4.22,4.22 0 0 0 4,-1.33l1.7,-1.54c0.59,-0.54 1.24,-1.27 1,-2a1.79,1.79 0 0 0 -1.44,-1a6,6 0 0 0 -4.25,0.75"/>
  <circle id="svg_79" opacity="0.1" fill="#f55f44" r="1.04" cy="368.72" cx="240.29"/>
  <circle id="svg_80" opacity="0.1" fill="#f55f44" r="3.82" cy="362.13" cx="261.45"/>
  <path id="svg_81" opacity="0.1" fill="#f55f44" d="m268.04,349.05l0,0a5.2,5.2 0 1 1 -5.89,-5.22l0,0a20,20 0 0 1 5.89,5.22z"/>
  <path id="svg_82" opacity="0.1" fill="#f55f44" d="m268.43,372.31a19.72,19.72 0 0 1 -14.91,8.35c0,-0.27 0,-0.55 0,-0.83a9.37,9.37 0 0 1 15,-7.52l-0.09,0z"/>
  <g id="svg_83" opacity="0.1">
   <rect id="svg_84" height="4" width="103" y="202.05" x="390.59"/>
  </g>
 </g>
</svg>